<svg width="24" height="24" viewBox="0 0 24 24" fill="none" xmlns="http://www.w3.org/2000/svg">
<path fill-rule="evenodd" clip-rule="evenodd" d="M6 4C4.89543 4 4 4.89543 4 6L4 18C4 19.1046 4.89543 20 6 20H10C10.5523 20 11 20.4477 11 21C11 21.5523 10.5523 22 10 22H6C3.79086 22 2 20.2091 2 18L2 6C2 3.79086 3.79086 2 6 2L10 2C10.5523 2 11 2.44772 11 3C11 3.55228 10.5523 4 10 4L6 4ZM15.2929 6.29289C15.6834 5.90237 16.3166 5.90237 16.7071 6.29289L21.7071 11.2929C22.0976 11.6834 22.0976 12.3166 21.7071 12.7071L16.7071 17.7071C16.3166 18.0976 15.6834 18.0976 15.2929 17.7071C14.9024 17.3166 14.9024 16.6834 15.2929 16.2929L18.5858 13L11 13C10.4477 13 10 12.5523 10 12C10 11.4477 10.4477 11 11 11L18.5858 11L15.2929 7.70711C14.9024 7.31658 14.9024 6.68342 15.2929 6.29289Z" fill="#1D80FA"/>
</svg>
