<svg width="24" height="24" viewBox="0 0 24 24" fill="none" xmlns="http://www.w3.org/2000/svg">
<path fill-rule="evenodd" clip-rule="evenodd" d="M7 9V6C7 3.23858 9.23858 1 12 1C14.7614 1 17 3.23858 17 6V9C19.2091 9 21 10.7909 21 13V19C21 21.2091 19.2091 23 17 23H7C4.79086 23 3 21.2091 3 19V13C3 10.7909 4.79086 9 7 9ZM9 6C9 4.34315 10.3431 3 12 3C13.6569 3 15 4.34315 15 6V9H9V6ZM11 16.1181C10.6931 15.8434 10.5 15.4443 10.5 15C10.5 14.1716 11.1716 13.5 12 13.5C12.8284 13.5 13.5 14.1716 13.5 15C13.5 15.4443 13.3069 15.8434 13 16.1181V18C13 18.5523 12.5523 19 12 19C11.4477 19 11 18.5523 11 18V16.1181Z" fill="#1D80FA"/>
</svg>
