<svg width="24" height="24" viewBox="0 0 24 24" fill="none" xmlns="http://www.w3.org/2000/svg">
<path d="M8 10V6C8 3.79086 9.79086 2 12 2C14.2091 2 16 3.79086 16 6V10M12 15.5V18M12 15.5C12.2761 15.5 12.5 15.2761 12.5 15M12 15.5C11.7239 15.5 11.5 15.2761 11.5 15M12.5 15C12.5 14.7239 12.2761 14.5 12 14.5C11.7239 14.5 11.5 14.7239 11.5 15M12.5 15H11.5M7 22H17C18.6569 22 20 20.6569 20 19V13C20 11.3431 18.6569 10 17 10H7C5.34315 10 4 11.3431 4 13V19C4 20.6569 5.34315 22 7 22Z" stroke="black" stroke-width="1.5" stroke-linecap="round" stroke-linejoin="round"/>
</svg>
