<svg width="24" height="24" viewBox="0 0 24 24" fill="none" xmlns="http://www.w3.org/2000/svg">
<path d="M21 19.4999H21.4286C21.7442 19.4999 22 19.244 22 18.9284C22 17.6705 21.3226 16.5709 20.3127 15.9743M19.0512 4.93162C19.9196 5.45722 20.5 6.41083 20.5 7.5C20.5 8.58917 19.9196 9.54278 19.0512 10.0684M3.69232 15.9713C2.67964 16.5672 2 17.6685 2 18.9284C2 19.244 2.25584 19.4999 2.57143 19.4999H3M4.95338 4.92888C4.08245 5.4539 3.5 6.40893 3.5 7.5C3.5 8.5887 4.07993 9.54196 4.94772 10.0677M7.71429 20.0001H16.2857C16.6802 20.0001 17 19.6803 17 19.2858C17 16.9189 15.0812 15.0001 12.7143 15.0001H11.2857C8.91878 15.0001 7 16.9189 7 19.2858C7 19.6803 7.3198 20.0001 7.71429 20.0001ZM15.5 7.5C15.5 9.433 13.933 11 12 11C10.067 11 8.5 9.433 8.5 7.5C8.5 5.567 10.067 4 12 4C13.933 4 15.5 5.567 15.5 7.5Z" stroke="black" stroke-width="1.5" stroke-linecap="round" stroke-linejoin="round"/>
</svg>
