<svg width="24" height="24" viewBox="0 0 24 24" fill="none" xmlns="http://www.w3.org/2000/svg">
<path d="M16 10L21.2227 6.51823C21.5549 6.29672 22 6.53491 22 6.93426V17.0657C22 17.4651 21.5549 17.7033 21.2227 17.4818L16 14M5 19H13C14.6569 19 16 17.6569 16 16V8C16 6.34315 14.6569 5 13 5H5C3.34315 5 2 6.34315 2 8V16C2 17.6569 3.34315 19 5 19ZM7.00001 9.56403V14.436C7.00001 14.8898 7.5098 15.1568 7.88285 14.8984L11.1764 12.6165C11.6069 12.3182 11.6069 11.6818 11.1764 11.3835L7.88285 9.10166C7.5098 8.8432 7.00001 9.11019 7.00001 9.56403Z" stroke="#7D7D7D" stroke-width="1.5" stroke-linecap="round" stroke-linejoin="round"/>
</svg>
