<svg width="24" height="24" viewBox="0 0 24 24" fill="none" xmlns="http://www.w3.org/2000/svg">
<path d="M9.8146 7.5C9.51545 7.5 9.28291 7.23889 9.32269 6.94239C9.51779 5.48792 9.7934 4.18701 10.1274 3.10167C10.3525 2.36978 10.5971 1.75983 10.8475 1.27615C10.9225 1.13124 11.0683 1.03769 11.2311 1.02645C11.4852 1.00891 11.7415 1 12 1C12.2585 1 12.5148 1.00891 12.7689 1.02645C12.9317 1.03769 13.0775 1.13124 13.1525 1.27615C13.4029 1.75983 13.6475 2.36978 13.8726 3.10167C14.2066 4.18701 14.4822 5.48792 14.6773 6.94239C14.7171 7.23889 14.4846 7.5 14.1854 7.5H9.8146Z" fill="#1D80FA"/>
<path d="M6.79203 7.5C7.04695 7.5 7.26066 7.30805 7.29178 7.05505C7.50108 5.35337 7.81633 3.81176 8.21579 2.5135C8.33538 2.12485 7.96917 1.75385 7.59662 1.91678C5.33076 2.90768 3.46318 4.63996 2.30055 6.80692C2.12911 7.12646 2.36946 7.5 2.73209 7.5H6.79203Z" fill="#1D80FA"/>
<path d="M1.20248 9.88836C1.24686 9.6601 1.44992 9.5 1.68246 9.5H6.54206C6.82968 9.5 7.05772 9.74205 7.0446 10.0294C7.01517 10.6737 7 11.3317 7 12C7 12.6683 7.01517 13.3263 7.0446 13.9706C7.05772 14.258 6.82968 14.5 6.54206 14.5H1.68246C1.44992 14.5 1.24686 14.3399 1.20248 14.1116C1.06961 13.4282 1 12.7223 1 12C1 11.2777 1.06961 10.5718 1.20248 9.88836Z" fill="#1D80FA"/>
<path d="M9.04969 9.96947C9.06275 9.70556 9.2817 9.5 9.54593 9.5H14.4541C14.7183 9.5 14.9372 9.70556 14.9503 9.96947C14.9829 10.6291 15 11.3073 15 12C15 12.6926 14.9829 13.3709 14.9503 14.0305C14.9372 14.2944 14.7183 14.5 14.4541 14.5H9.54593C9.28171 14.5 9.06275 14.2944 9.0497 14.0305C9.01706 13.3709 9 12.6926 9 12C9 11.3073 9.01706 10.6291 9.04969 9.96947Z" fill="#1D80FA"/>
<path d="M17.4579 9.5C17.1703 9.5 16.9423 9.74205 16.9554 10.0294C16.9848 10.6737 17 11.3317 17 12C17 12.6683 16.9848 13.3263 16.9554 13.9706C16.9423 14.258 17.1703 14.5 17.4579 14.5H22.3175C22.5501 14.5 22.7531 14.3399 22.7975 14.1116C22.9304 13.4282 23 12.7223 23 12C23 11.2777 22.9304 10.5718 22.7975 9.88836C22.7531 9.6601 22.5501 9.5 22.3175 9.5H17.4579Z" fill="#1D80FA"/>
<path d="M21.2679 7.5C21.6305 7.5 21.8709 7.12646 21.6994 6.80692C20.5368 4.63996 18.6692 2.90768 16.4034 1.91678C16.0308 1.75385 15.6646 2.12485 15.7842 2.5135C16.1837 3.81176 16.4989 5.35337 16.7082 7.05505C16.7393 7.30805 16.9531 7.5 17.208 7.5H21.2679Z" fill="#1D80FA"/>
<path d="M10.1274 20.8983C9.79341 19.813 9.5178 18.5121 9.32269 17.0576C9.28292 16.7611 9.51546 16.5 9.8146 16.5H14.1854C14.4845 16.5 14.7171 16.7611 14.6773 17.0576C14.4822 18.5121 14.2066 19.813 13.8726 20.8983C13.6474 21.6302 13.4029 22.2402 13.1525 22.7239C13.0775 22.8688 12.9316 22.9623 12.7688 22.9735C12.5148 22.9911 12.2585 23 12 23C11.7415 23 11.4852 22.9911 11.2312 22.9735C11.0684 22.9623 10.9225 22.8688 10.8475 22.7239C10.5971 22.2402 10.3526 21.6302 10.1274 20.8983Z" fill="#1D80FA"/>
<path d="M7.29179 16.945C7.26067 16.6919 7.04695 16.5 6.79204 16.5H2.73209C2.36946 16.5 2.12911 16.8735 2.30055 17.1931C3.46317 19.36 5.33074 21.0923 7.59657 22.0832C7.96916 22.2461 8.33538 21.8751 8.21579 21.4864C7.81633 20.1882 7.50109 18.6466 7.29179 16.945Z" fill="#1D80FA"/>
<path d="M21.6994 17.1931C21.8709 16.8735 21.6305 16.5 21.2679 16.5H17.208C16.953 16.5 16.7393 16.6919 16.7082 16.945C16.4989 18.6466 16.1837 20.1882 15.7842 21.4864C15.6646 21.8751 16.0308 22.2461 16.4034 22.0832C18.6693 21.0923 20.5368 19.36 21.6994 17.1931Z" fill="#1D80FA"/>
</svg>
