<svg width="22" height="22" viewBox="0 0 22 22" fill="none" xmlns="http://www.w3.org/2000/svg">
<path d="M1.59621 8.70723C1.29075 8.53923 0.916992 8.76022 0.916992 9.10883V15.5833C0.916992 17.6084 2.55861 19.25 4.58366 19.25H17.417C19.442 19.25 21.0837 17.6084 21.0837 15.5833V9.10883C21.0837 8.76022 20.7099 8.53923 20.4044 8.70723L12.7674 12.9076C11.6671 13.5128 10.3336 13.5128 9.23329 12.9076L1.59621 8.70723Z" fill="#FC663D"/>
<path d="M20.8294 6.38116C20.9826 6.29692 21.077 6.13232 21.0554 5.95886C20.83 4.14988 19.287 2.75 17.417 2.75H4.58366C2.71365 2.75 1.17061 4.14988 0.945295 5.95886C0.92369 6.13232 1.01806 6.29692 1.17123 6.38116L10.1168 11.3012C10.667 11.6038 11.3337 11.6038 11.8838 11.3012L20.8294 6.38116Z" fill="#FC663D"/>
</svg>
