<svg width="24" height="24" viewBox="0 0 24 24" fill="none" xmlns="http://www.w3.org/2000/svg">
<path d="M15.75 3H17C18.6569 3 20 4.34315 20 6V19C20 20.6569 18.6569 22 17 22H7C5.34315 22 4 20.6569 4 19V6C4 4.34315 5.34315 3 7 3H8.25M12 10.005L16 9.995M12 14.005L16 13.995M12 18.005L16 17.995M8 18V18.01M8 14V14.01M8 10V10.01M8.5 5.5H15.5C15.7761 5.5 16 5.27614 16 5V4C16 2.89543 15.1046 2 14 2H10C8.89543 2 8 2.89543 8 4V5C8 5.27614 8.22386 5.5 8.5 5.5ZM8.25 18C8.25 18.1381 8.13807 18.25 8 18.25C7.86193 18.25 7.75 18.1381 7.75 18C7.75 17.8619 7.86193 17.75 8 17.75C8.13807 17.75 8.25 17.8619 8.25 18ZM8.25 14C8.25 14.1381 8.13807 14.25 8 14.25C7.86193 14.25 7.75 14.1381 7.75 14C7.75 13.8619 7.86193 13.75 8 13.75C8.13807 13.75 8.25 13.8619 8.25 14ZM8.25 10C8.25 10.1381 8.13807 10.25 8 10.25C7.86193 10.25 7.75 10.1381 7.75 10C7.75 9.86193 7.86193 9.75 8 9.75C8.13807 9.75 8.25 9.86193 8.25 10Z" stroke="white" stroke-opacity="0.4" stroke-width="1.5" stroke-linecap="round" stroke-linejoin="round"/>
</svg>
